<?xml version="1.0" encoding="utf-8"?>
<!-- Uploaded to: SVG Repo, www.svgrepo.com, Generator: SVG Repo Mixer Tools -->
<svg xmlns="http://www.w3.org/2000/svg" xmlns:xlink="http://www.w3.org/1999/xlink" version="1.1" id="cloudrain"  viewBox="0 0 216 200" enable-background="new 0 0 216 200" xml:space="preserve" width="512" height="512">
<g>
	<path fill="#D0E8FF" d="M147.6146,180c0,6.6172,5.3828,12,12,12s12-5.3828,12-12c0-4.3008-6.2773-14.1211-12-21.5898   C153.892,165.8828,147.6146,175.707,147.6146,180z"/>
	<path fill="#D0E8FF" d="M43.6146,180c0,6.6172,5.3828,12,12,12s12-5.3828,12-12c0-4.3008-6.2773-14.1211-12-21.5898   C49.8919,165.8828,43.6146,175.707,43.6146,180z"/>
	<path fill="#D0E8FF" d="M95.6146,180c0,6.6172,5.3828,12,12,12s12-5.3828,12-12c0-4.3008-6.2773-14.1211-12-21.5898   C101.8919,165.8828,95.6146,175.707,95.6146,180z"/>
	<path fill="#5CB0FF" d="M169.6146,60c-0.6055,0-1.2031,0.0156-1.8008,0.0449c-1.0781,0.0781-2.1602-0.3398-2.957-1.0957   c-0.793-0.7559-1.2422-1.8027-1.2422-2.8984c0-26.5176-22.4297-48.0508-50-48.0508C91.7162,8,72.556,21.4531,65.9427,41.4746   c-0.5859,1.7812-2.3477,2.916-4.1875,2.7266C60.3919,44.0684,59.0091,44,57.6146,44c-23.1602,0-42,18.8418-42,42   c0,23.1602,18.8398,42,42,42c0.6211,0,1.2344-0.0156,1.8477-0.0391c0.25-0.0234,0.5078,0.0039,0.75,0.0391h110.7578   c0.1406-0.0234,0.2812-0.0391,0.4219-0.0469c18.0703-0.9258,32.2227-15.8398,32.2227-33.9531   C203.6146,75.252,188.3607,60,169.6146,60z"/>
	<path fill="#1C71DA" d="M171.4701,52.041C169.3607,23.002,144.2162,0,113.6146,0c-24.2773,0-45.6719,14.3555-54.207,36.0312   C58.8138,36.0098,58.2162,36,57.6146,36c-27.5703,0-50,22.4297-50,50s22.4297,50,50,50c0.5234,0,1.043-0.0078,1.5586-0.0234   c0.1445,0.0156,0.293,0.0234,0.4414,0.0234h112c0.2891,0,0.5742-0.0312,0.8516-0.0938   c22.0078-1.4727,39.1484-19.7539,39.1484-41.9062C211.6146,71.4629,193.7709,53.0156,171.4701,52.041z M171.392,127.9531   c-0.1406,0.0078-0.2812,0.0234-0.4219,0.0469H60.2123c-0.2422-0.0352-0.5-0.0625-0.75-0.0391   C58.849,127.9844,58.2357,128,57.6146,128c-23.1602,0-42-18.8398-42-42c0-23.1582,18.8398-42,42-42   c1.3945,0,2.7773,0.0684,4.1406,0.2012c1.8398,0.1895,3.6016-0.9453,4.1875-2.7266C72.556,21.4531,91.7162,8,113.6146,8   c27.5703,0,50,21.5332,50,48.0508c0,1.0957,0.4492,2.1426,1.2422,2.8984c0.7969,0.7559,1.8789,1.1738,2.957,1.0957   C168.4115,60.0156,169.0091,60,169.6146,60c18.7461,0,34,15.252,34,34C203.6146,112.1133,189.4623,127.0273,171.392,127.9531z"/>
	<path fill="#1C71DA" d="M52.5443,149.4375C49.7162,152.8242,35.6146,170.2109,35.6146,180c0,11.0273,8.9727,20,20,20   s20-8.9727,20-20c0-9.7891-14.1016-27.1758-16.9297-30.5625C57.1615,147.6172,54.0677,147.6172,52.5443,149.4375z M55.6146,192   c-6.6172,0-12-5.3828-12-12c0-4.293,6.2773-14.1172,12-21.5898c5.7227,7.4688,12,17.2891,12,21.5898   C67.6146,186.6172,62.2318,192,55.6146,192z"/>
	<path fill="#1C71DA" d="M104.5443,149.4375c-2.8281,3.3867-16.9297,20.7734-16.9297,30.5625c0,11.0273,8.9727,20,20,20   s20-8.9727,20-20c0-9.7891-14.1016-27.1758-16.9297-30.5625C109.1615,147.6172,106.0677,147.6172,104.5443,149.4375z M107.6146,192   c-6.6172,0-12-5.3828-12-12c0-4.293,6.2773-14.1172,12-21.5898c5.7227,7.4688,12,17.2891,12,21.5898   C119.6146,186.6172,114.2318,192,107.6146,192z"/>
	<path fill="#1C71DA" d="M156.5443,149.4375c-2.8281,3.3867-16.9297,20.7734-16.9297,30.5625c0,11.0273,8.9727,20,20,20   s20-8.9727,20-20c0-9.7891-14.1016-27.1758-16.9297-30.5625C161.1615,147.6172,158.0677,147.6172,156.5443,149.4375z M159.6146,192   c-6.6172,0-12-5.3828-12-12c0-4.293,6.2773-14.1172,12-21.5898c5.7227,7.4688,12,17.2891,12,21.5898   C171.6146,186.6172,166.2318,192,159.6146,192z"/>
</g>
<path fill="#FF5D5D" d="M4,150.8317c-1.0234,0-2.0479-0.3906-2.8281-1.1719c-1.5625-1.5615-1.5625-4.0947,0-5.6562l14.1426-14.1416  c1.5625-1.5625,4.0957-1.5625,5.6562,0c1.5625,1.5615,1.5625,4.0947,0,5.6562L6.8281,149.6598  C6.0469,150.441,5.0234,150.8317,4,150.8317z"/>
<path fill="#FF5D5D" d="M18.1426,150.8326c-1.0234,0-2.0479-0.3906-2.8281-1.1719L1.1719,135.5182  c-1.5625-1.5615-1.5625-4.0947,0-5.6562c1.5605-1.5625,4.0957-1.5625,5.6562,0l14.1426,14.1426  c1.5625,1.5615,1.5625,4.0947,0,5.6562C20.1904,150.442,19.166,150.8326,18.1426,150.8326z"/>
<path fill="#00D40B" d="M202,158.8317c-7.7197,0-14-6.2803-14-14s6.2803-14,14-14s14,6.2803,14,14S209.7197,158.8317,202,158.8317z   M202,138.8317c-3.3086,0-6,2.6914-6,6s2.6914,6,6,6s6-2.6914,6-6S205.3086,138.8317,202,138.8317z"/>
<path fill="#FFC504" d="M59.3135,105.4596c-1.0605,0-2.0781-0.4214-2.8281-1.1719l-11.3135-11.314  c-1.5625-1.562-1.5625-4.0942,0-5.6567l11.3135-11.3135c1.5605-1.5615,4.0957-1.5615,5.6562,0L73.4551,87.317  c1.5625,1.5625,1.5625,4.0947,0,5.6567l-11.3135,11.314C61.3916,105.0382,60.374,105.4596,59.3135,105.4596z M53.6572,90.1456  l5.6562,5.6572l5.6562-5.6572l-5.6562-5.6567L53.6572,90.1456z"/>
</svg>