<?xml version="1.0" encoding="utf-8"?>
<!-- Uploaded to: SVG Repo, www.svgrepo.com, Generator: SVG Repo Mixer Tools -->
<svg xmlns="http://www.w3.org/2000/svg" xmlns:xlink="http://www.w3.org/1999/xlink" version="1.1" id="clouds"  viewBox="0 0 220 218.7191" enable-background="new 0 0 220 218.7191" xml:space="preserve" width="512" height="512">
<g>
	<path fill="#D0E8FF" d="M90.125,165.9222c-6.2695-3.625-13.7656-4.2227-20.5469-1.6484c-1.2812,0.4883-2.7227,0.2852-3.8282-0.543   c-1.0976-0.8242-1.6913-2.1562-1.582-3.5234c0.4453-5.3789-2.2852-10.5938-6.9531-13.2852   c-3.2344-1.8672-7.0078-2.3633-10.625-1.4023c-3.6094,0.9688-6.6289,3.2852-8.5,6.5234   c-3.4648,6.0078-2.0742,13.5273,3.3086,17.8751c1.0664,0.8671,1.6172,2.2187,1.457,3.5859   c-0.1641,1.3672-1.0156,2.5508-2.2578,3.1406c-2.5703,1.2188-4.6836,3.1719-6.1133,5.6484   c-1.8711,3.2383-2.3672,7.0117-1.3984,10.6211c0.9688,3.6133,3.2852,6.6328,6.5234,8.5c4.5742,2.6484,10.1875,2.5,14.625-0.3789   c0.6719-0.4297,1.4258-0.6406,2.1719-0.6406c1.168,0,2.3203,0.5078,3.1055,1.4727c1.8398,2.2578,4.0625,4.1484,6.6133,5.6211   c5.5547,3.207,12.0234,4.0586,18.2109,2.3984c6.1914-1.6602,11.3672-5.6328,14.5703-11.1836   c3.207-5.5508,4.0586-12.0195,2.3984-18.2109C99.6484,174.3011,95.6758,169.1254,90.125,165.9222z"/>
	<path fill="#5CB0FF" d="M112,45.1683c-5.6406,0-11.0781,1.6719-15.7266,4.832c-1.4414,0.9727-3.3516,0.9141-4.7188-0.1602   C87.6562,46.7855,82.9688,45.1683,78,45.1683c-5.625,0-10.9727,2.1211-15.0625,5.9688c-0.793,0.7461-1.8438,1.168-2.9453,1.082   c-1.0859-0.0547-2.1055-0.5547-2.8203-1.375C51.8438,44.6957,44.125,41.1683,36,41.1683c-15.4375,0-28,12.5625-28,28   s12.5625,28,28,28c1.2031,0,2.3945-0.0742,3.5586-0.2227c0.1641-0.0195,0.332-0.0312,0.5-0.0312   c0.9219,0,1.8242,0.3203,2.543,0.9141c0.8516,0.6992,1.375,1.7227,1.4492,2.8203C44.8125,112.1566,54.4531,121.1683,66,121.1683   c12.1289,0,22-9.8711,22-22l-0.0156-0.8984c-0.0547-1.5625,0.8086-3.0156,2.207-3.7148c1.3984-0.6914,3.0781-0.5195,4.293,0.4609   c5.0117,4.0234,11.0703,6.1523,17.5156,6.1523c15.4375,0,28-12.5625,28-28S127.4375,45.1683,112,45.1683z"/>
	<path fill="#D0E8FF" d="M188,93.1683c-9.9609,0-18.7344,5.9922-22.3594,15.2617c-0.7969,2.043-3.0898,3.0625-5.1406,2.2852   c-2.7148-1.0273-5.5781-1.5469-8.5-1.5469c-13.2344,0-24,10.7656-24,24s10.7656,24,24,24c9.957,0,18.7344-5.9922,22.3594-15.2617   c0.8008-2.0391,3.0977-3.0625,5.1406-2.2852c2.7148,1.0273,5.5781,1.5469,8.5,1.5469c13.2344,0,24-10.7656,24-24   S201.2344,93.1683,188,93.1683z"/>
	<path fill="#1C71DA" d="M148,73.1683c0-19.8516-16.1484-36-36-36c-6.3047,0-12.4141,1.625-17.832,4.7227   c-10.0664-6.4726-23.9414-6.0898-33.6641,0.9023C53.875,36.6371,45.1406,33.1683,36,33.1683c-19.8516,0-36,16.1484-36,36   s16.1484,36,36,36c0.1992,0,0.4023,0,0.6016-0.0039C39.3984,118.9066,51.6172,129.1683,66,129.1683   c14.5078,0,26.6406-10.3516,29.4062-24.0547c5.0977,2.6406,10.8008,4.0547,16.5938,4.0547   C131.8516,109.1683,148,93.0199,148,73.1683z M112,101.1683c-6.4453,0-12.5039-2.1289-17.5156-6.1523   c-1.2148-0.9805-2.8945-1.1523-4.293-0.4609c-1.3984,0.6992-2.2617,2.1523-2.207,3.7148L88,99.1683c0,12.1289-9.8711,22-22,22   c-11.5469,0-21.1875-9.0117-21.9492-20.5195c-0.0742-1.0977-0.5977-2.1211-1.4492-2.8203   c-0.7188-0.5938-1.6211-0.9141-2.543-0.9141c-0.168,0-0.3359,0.0117-0.5,0.0312c-1.1641,0.1484-2.3555,0.2227-3.5586,0.2227   c-15.4375,0-28-12.5625-28-28s12.5625-28,28-28c8.125,0,15.8438,3.5273,21.1719,9.6758c0.7148,0.8203,1.7344,1.3203,2.8203,1.375   c1.1016,0.0859,2.1523-0.3359,2.9453-1.082C67.0273,47.2894,72.375,45.1683,78,45.1683c4.9688,0,9.6562,1.6172,13.5547,4.6719   c1.3672,1.0742,3.2773,1.1328,4.7188,0.1602c4.6484-3.1602,10.0859-4.832,15.7266-4.832c15.4375,0,28,12.5625,28,28   S127.4375,101.1683,112,101.1683z"/>
	<path fill="#1C71DA" d="M188,85.1683c-12.0156,0-22.7422,6.5391-28.2501,16.9453c-2.5273-0.6289-5.1171-0.9453-7.7499-0.9453   c-17.6445,0-32,14.3555-32,32s14.3555,32,32,32c12.0117,0,22.7344-6.543,28.2499-16.9453   c2.5235,0.6289,5.1173,0.9453,7.7501,0.9453c17.6445,0,32-14.3555,32-32S205.6445,85.1683,188,85.1683z M188,141.1683   c-2.9219,0-5.7852-0.5195-8.5-1.5469c-2.043-0.7773-4.3398,0.2461-5.1406,2.2852c-3.625,9.2695-12.4023,15.2617-22.3594,15.2617   c-13.2344,0-24-10.7656-24-24s10.7656-24,24-24c2.9219,0,5.7852,0.5195,8.5,1.5469c2.0508,0.7773,4.3438-0.2422,5.1406-2.2852   c3.625-9.2695,12.3984-15.2617,22.3594-15.2617c13.2344,0,24,10.7656,24,24S201.2344,141.1683,188,141.1683z"/>
	<path fill="#1C71DA" d="M94.125,158.9926c-6.8008-3.9258-14.6758-5.1914-22.2344-3.6797   c-1.1094-6.3398-4.9688-12.0273-10.6758-15.3203c-5.0898-2.9375-11.0195-3.7227-16.6953-2.1992   c-5.6758,1.5195-10.418,5.1602-13.3594,10.25c-4.5273,7.8516-3.7773,17.3438,1.4688,24.25c-2.0234,1.6641-3.7383,3.6875-5.0742,6   c-2.9375,5.0898-3.7188,11.0156-2.1953,16.6953c1.5195,5.6758,5.1602,10.418,10.25,13.3555   c6.1875,3.5781,13.5703,3.9023,19.9414,1.0547c1.957,1.9414,4.1562,3.625,6.5742,5.0196   c4.9297,2.8476,10.4023,4.3007,15.9453,4.3007c2.7812,0,5.5781-0.3672,8.3359-1.1055c8.2578-2.2109,15.1562-7.5078,19.4297-14.9102   s5.4102-16.0234,3.1992-24.2812C106.8203,170.1683,101.5273,163.266,94.125,158.9926z M98.9062,198.7035   c-3.2031,5.5508-8.3789,9.5234-14.5703,11.1836c-6.1875,1.6602-12.6562,0.8086-18.2109-2.3984   c-2.5508-1.4727-4.7734-3.3633-6.6133-5.6211c-0.7852-0.9648-1.9375-1.4727-3.1055-1.4727c-0.7461,0-1.5,0.2109-2.1719,0.6406   c-4.4375,2.8789-10.0508,3.0273-14.625,0.3789c-3.2383-1.8672-5.5547-4.8867-6.5234-8.5   c-0.9688-3.6094-0.4727-7.3828,1.3984-10.6211c1.4297-2.4766,3.543-4.4297,6.1133-5.6484   c1.2422-0.5898,2.0938-1.7734,2.2578-3.1406c0.1602-1.3672-0.3906-2.7188-1.457-3.5859   c-5.3828-4.3477-6.7734-11.8672-3.3086-17.8751c1.8711-3.2383,4.8906-5.5547,8.5-6.5234c3.6172-0.9609,7.3906-0.4648,10.625,1.4023   c4.668,2.6914,7.3984,7.9062,6.9531,13.2852c-0.1094,1.3672,0.4844,2.6992,1.582,3.5234c1.1055,0.8281,2.5469,1.0312,3.8282,0.543   c6.7812-2.5742,14.2773-1.9766,20.5469,1.6484c5.5508,3.2031,9.5234,8.3789,11.1797,14.5703   C102.9648,186.684,102.1133,193.1527,98.9062,198.7035z"/>
</g>
<path fill="#FF5D5D" d="M172.3854,44c-1.0234,0-2.0479-0.3906-2.8281-1.1719c-1.5625-1.5615-1.5625-4.0947,0-5.6562l14.1426-14.1416  c1.5625-1.5625,4.0957-1.5625,5.6562,0c1.5625,1.5615,1.5625,4.0947,0,5.6562l-14.1426,14.1416  C174.4323,43.6094,173.4088,44,172.3854,44z"/>
<path fill="#FF5D5D" d="M186.528,44.001c-1.0234,0-2.0479-0.3906-2.8281-1.1719l-14.1426-14.1426  c-1.5625-1.5615-1.5625-4.0947,0-5.6562c1.5605-1.5625,4.0957-1.5625,5.6562,0l14.1426,14.1426  c1.5625,1.5615,1.5625,4.0947,0,5.6562C188.5758,43.6104,187.5514,44.001,186.528,44.001z"/>
<path fill="#00D40B" d="M134.3854,28c-7.7197,0-14-6.2803-14-14s6.2803-14,14-14s14,6.2803,14,14S142.1051,28,134.3854,28z   M134.3854,8c-3.3086,0-6,2.6914-6,6s2.6914,6,6,6s6-2.6914,6-6S137.694,8,134.3854,8z"/>
<path fill="#FFC504" d="M183.6989,198.6279c-1.0605,0-2.0781-0.4219-2.8281-1.1719l-11.3135-11.3145  c-1.5625-1.5615-1.5625-4.0947,0-5.6562l11.3135-11.3135c1.5605-1.5625,4.0957-1.5625,5.6562,0l11.3135,11.3135  c1.5625,1.5615,1.5625,4.0947,0,5.6562l-11.3135,11.3145C185.777,198.2061,184.7594,198.6279,183.6989,198.6279z M178.0416,183.3135  l5.6572,5.6572l5.6572-5.6572l-5.6572-5.6562L178.0416,183.3135z"/>
</svg>