<?xml version="1.0" encoding="utf-8"?>
<!-- Uploaded to: SVG Repo, www.svgrepo.com, Generator: SVG Repo Mixer Tools -->
<svg xmlns="http://www.w3.org/2000/svg" xmlns:xlink="http://www.w3.org/1999/xlink" version="1.1" id="daytemperature"  viewBox="0 0 204 221.6562" enable-background="new 0 0 204 221.6562" xml:space="preserve" width="512" height="512">
<g>
	<path fill="#FFFFFF" d="M152,25.6562c2.209,0,4,1.791,4,4s-1.791,4-4,4h-8v20h20V19.6602c0-5.5156-4.4863-10.0039-10-10.0039   s-10,4.4883-10,10.0039v5.9961H152z"/>
	<path fill="#D0E8FF" d="M36,17.6562c-15.4395,0-28,12.5605-28,28s12.5605,28,28,28s28-12.5605,28-28S51.4395,17.6562,36,17.6562z"/>
	<path fill="#5CB0FF" d="M166.791,132.1953c-1.6621-0.5273-2.791-2.0684-2.791-3.8125v-66.707h-20v19.9805h8c2.209,0,4,1.791,4,4   s-1.791,4-4,4h-8v20h8c2.209,0,4,1.791,4,4s-1.791,4-4,4h-8v10.7266c0,1.7441-1.1289,3.2852-2.791,3.8125   C123.7383,137.7383,112,153.7109,112,171.9414c0,23.002,18.8418,41.7148,42,41.7148s42-18.7129,42-41.7148   C196,153.7109,184.2617,137.7383,166.791,132.1953z"/>
	<path fill="#1C71DA" d="M172,125.5449V61.6562v-3.9805V19.6602c0-9.9277-8.0742-18.0039-18-18.0039s-18,8.0762-18,18.0039v38.0156   v3.9805v63.8887c-19.2578,7.3594-32,25.6504-32,46.3965c0,27.4121,22.4297,49.7148,50,49.7148s50-22.3027,50-49.7148   C204,151.1953,191.2578,132.9043,172,125.5449z M154,9.6562c5.5137,0,10,4.4883,10,10.0039v33.9961h-20v-20h8c2.209,0,4-1.791,4-4   s-1.791-4-4-4h-8v-5.9961C144,14.1445,148.4863,9.6562,154,9.6562z M154,213.6562c-23.1582,0-42-18.7129-42-41.7148   c0-18.2305,11.7383-34.2031,29.209-39.7461c1.6621-0.5273,2.791-2.0684,2.791-3.8125v-10.7266h8c2.209,0,4-1.791,4-4s-1.791-4-4-4   h-8v-20h8c2.209,0,4-1.791,4-4s-1.791-4-4-4h-8V61.6758h20v66.707c0,1.7441,1.1289,3.2852,2.791,3.8125   c17.4707,5.543,29.209,21.5156,29.209,39.7461C196,194.9434,177.1582,213.6562,154,213.6562z"/>
	<path fill="#1C71DA" d="M36,9.6562c-19.8496,0-36,16.1504-36,36s16.1504,36,36,36s36-16.1504,36-36S55.8496,9.6562,36,9.6562z    M36,73.6562c-15.4395,0-28-12.5605-28-28s12.5605-28,28-28s28,12.5605,28,28S51.4395,73.6562,36,73.6562z"/>
	<path fill="#1C71DA" d="M96,41.6562H80c-2.209,0-4,1.791-4,4s1.791,4,4,4h16c2.209,0,4-1.791,4-4S98.209,41.6562,96,41.6562z"/>
	<path fill="#1C71DA" d="M36,85.6562c-2.209,0-4,1.791-4,4v16c0,2.209,1.791,4,4,4s4-1.791,4-4v-16   C40,87.4473,38.209,85.6562,36,85.6562z"/>
	<path fill="#1C71DA" d="M72.0996,73.1719c-1.5625-1.5625-4.0938-1.5625-5.6562,0c-1.5625,1.5605-1.5625,4.0938,0,5.6562   l11.3125,11.3145c0.7812,0.7812,1.8047,1.1719,2.8281,1.1719s2.0469-0.3906,2.8281-1.1719c1.5625-1.5605,1.5625-4.0938,0-5.6562   L72.0996,73.1719z"/>
	<path fill="#1C71DA" d="M69.2715,19.3145c1.0234,0,2.0469-0.3906,2.8281-1.1719L83.4121,6.8281   c1.5625-1.5625,1.5625-4.0957,0-5.6562c-1.5625-1.5625-4.0938-1.5625-5.6562,0L66.4434,12.4863   c-1.5625,1.5625-1.5625,4.0957,0,5.6562C67.2246,18.9238,68.248,19.3145,69.2715,19.3145z"/>
</g>
<path fill="#FF5D5D" d="M184.3854,80.4884c-1.0239,0-2.0474-0.3906-2.8286-1.1714c-1.562-1.5625-1.562-4.0947,0-5.6572  l14.1421-14.1421c1.5625-1.5615,4.0947-1.5615,5.6572,0c1.562,1.5625,1.562,4.0947,0,5.6572L187.214,79.317  C186.4328,80.0978,185.4093,80.4884,184.3854,80.4884z"/>
<path fill="#FF5D5D" d="M198.5275,80.4869c-1.0239,0-2.0474-0.3906-2.8286-1.1714L181.5568,65.173  c-1.562-1.5625-1.562-4.0952,0-5.6572c1.5635-1.5615,4.0957-1.561,5.6572,0l14.1421,14.1426c1.562,1.5625,1.562,4.0952,0,5.6572  C200.5748,80.0963,199.5509,80.4869,198.5275,80.4869z"/>
<path fill="#00D40B" d="M46.3854,196.4884c-7.7197,0-14-6.2803-14-14s6.2803-14,14-14s14,6.2803,14,14  S54.1051,196.4884,46.3854,196.4884z M46.3854,176.4884c-3.3086,0-6,2.6914-6,6s2.6914,6,6,6s6-2.6914,6-6  S49.694,176.4884,46.3854,176.4884z"/>
<path fill="#FFC504" d="M67.6989,159.1139c-1.0239,0-2.0474-0.3906-2.8286-1.1714L53.5568,146.629  c-1.562-1.5625-1.562-4.0947,0-5.6572l11.3135-11.3135c1.5625-1.5615,4.0952-1.5615,5.6567,0l11.314,11.3135  c0.7505,0.7505,1.1719,1.7676,1.1719,2.8286s-0.4214,2.0781-1.1719,2.8286l-11.314,11.3135  C69.7462,158.7233,68.7223,159.1139,67.6989,159.1139z M62.0421,143.8004l5.6567,5.6567l5.6572-5.6567l-5.6572-5.6567  L62.0421,143.8004z"/>
</svg>