<?xml version="1.0" encoding="utf-8"?>
<!-- Uploaded to: SVG Repo, www.svgrepo.com, Generator: SVG Repo Mixer Tools -->
<svg xmlns="http://www.w3.org/2000/svg" xmlns:xlink="http://www.w3.org/1999/xlink" version="1.1" id="clouddroplet"  viewBox="0 0 232 196.0002" enable-background="new 0 0 232 196.0002" xml:space="preserve" width="512" height="512">
<g>
	<path fill="#D0E8FF" d="M92,110.6207c0,14.6367,11.6641,26.5469,26,26.5469s26-11.9102,26-26.5469   c0-11.2617-16.6367-34.9902-26-47.0332C108.6367,75.6305,92,99.359,92,110.6207z M122,125.1676c0,2.2109-1.7891,4-4,4   c-9.9258,0-18-8.0742-18-18c0-2.2109,1.7891-4,4-4s4,1.7891,4,4c0,5.5156,4.4844,10,10,10   C120.2109,121.1676,122,122.9567,122,125.1676z"/>
	<path fill="#5CB0FF" d="M184.5703,81.2926c-0.6914,0-1.3828,0.0176-2.0703,0.0547c-1.1016,0.0508-2.1719-0.3359-2.9648-1.0898   c-0.7969-0.7559-1.25-1.8066-1.25-2.9043c0-31.0078-25.8906-56.1855-57.7148-56.1855c-25.2656,0-47.3789,15.7207-55.0195,39.1211   c-0.582,1.7852-2.3438,2.9336-4.1953,2.7383c-1.5703-0.1543-3.168-0.2344-4.7852-0.2344C29.7891,62.7926,8,84.859,8,111.9801   s21.7891,49.1875,48.5703,49.1875c0.7109,0,1.4141-0.0156,2.1172-0.0469c0.2812-0.0195,0.5469,0,0.8203,0.0469h126.6562   c0.1562-0.0273,0.3086-0.0469,0.4688-0.0547C207.5859,160.0231,224,142.5035,224,121.2301   C224,99.2086,206.3125,81.2926,184.5703,81.2926z M118,145.1676c-18.7461,0-34-15.4961-34-34.5469   c0-17.7832,27.7422-52.1309,30.9062-55.9902c1.5234-1.8516,4.6641-1.8516,6.1875,0C124.2578,58.4899,152,92.8375,152,110.6207   C152,129.6715,136.7461,145.1676,118,145.1676z"/>
	<path fill="#1C71DA" d="M186.1602,73.3199c-2.1094-33.5176-30.7227-60.1523-65.5898-60.1523   c-27.6641,0-52.0156,16.6191-61.5742,41.6758c-0.8086-0.0332-1.6172-0.0508-2.4258-0.0508C25.3789,54.7926,0,80.4469,0,111.9801   c0,31.5352,25.3789,57.1875,56.5703,57.1875c0.6055,0,1.207-0.0078,1.8086-0.0273c0.1562,0.0195,0.3164,0.0273,0.4766,0.0273h128   c0.3047,0,0.6055-0.0352,0.8945-0.1055C212.6211,167.3981,232,146.5231,232,121.2301C232,95.3336,211.582,74.1696,186.1602,73.3199   z M186.6328,161.1129c-0.1602,0.0078-0.3125,0.0273-0.4688,0.0547H59.5078c-0.2734-0.0469-0.5391-0.0664-0.8203-0.0469   c-0.7031,0.0312-1.4062,0.0469-2.1172,0.0469C29.7891,161.1676,8,139.1012,8,111.9801s21.7891-49.1875,48.5703-49.1875   c1.6172,0,3.2148,0.0801,4.7852,0.2344c1.8516,0.1953,3.6133-0.9531,4.1953-2.7383c7.6406-23.4004,29.7539-39.1211,55.0195-39.1211   c31.8242,0,57.7148,25.1777,57.7148,56.1855c0,1.0977,0.4531,2.1484,1.25,2.9043c0.793,0.7539,1.8633,1.1406,2.9648,1.0898   c0.6875-0.0371,1.3789-0.0547,2.0703-0.0547c21.7422,0,39.4297,17.916,39.4297,39.9375   C224,142.5035,207.5859,160.0231,186.6328,161.1129z"/>
	<path fill="#1C71DA" d="M114.9062,54.6305C111.7422,58.4899,84,92.8375,84,110.6207c0,19.0508,15.2539,34.5469,34,34.5469   s34-15.4961,34-34.5469c0-17.7832-27.7422-52.1309-30.9062-55.9902C119.5703,52.7789,116.4297,52.7789,114.9062,54.6305z    M118,137.1676c-14.3359,0-26-11.9102-26-26.5469c0-11.2617,16.6367-34.9902,26-47.0332c9.3633,12.043,26,35.7715,26,47.0332   C144,125.2574,132.3359,137.1676,118,137.1676z"/>
	<path fill="#1C71DA" d="M108,111.1676c0-2.2109-1.7891-4-4-4s-4,1.7891-4,4c0,9.9258,8.0742,18,18,18c2.2109,0,4-1.7891,4-4   s-1.7891-4-4-4C112.4844,121.1676,108,116.6832,108,111.1676z"/>
</g>
<path fill="#FF5D5D" d="M24.3854,195.9993c-1.0234,0-2.0479-0.3906-2.8281-1.1719c-1.5625-1.5615-1.5625-4.0947,0-5.6562  l14.1426-14.1416c1.5625-1.5625,4.0957-1.5625,5.6562,0c1.5625,1.5615,1.5625,4.0947,0,5.6562l-14.1426,14.1416  C26.4323,195.6086,25.4088,195.9993,24.3854,195.9993z"/>
<path fill="#FF5D5D" d="M38.528,196.0002c-1.0234,0-2.0479-0.3906-2.8281-1.1719l-14.1426-14.1426  c-1.5625-1.5615-1.5625-4.0947,0-5.6562c1.5605-1.5625,4.0957-1.5625,5.6562,0l14.1426,14.1426  c1.5625,1.5615,1.5625,4.0947,0,5.6562C40.5758,195.6096,39.5514,196.0002,38.528,196.0002z"/>
<path fill="#00D40B" d="M30.3854,31.9998c-7.7197,0-14-6.2803-14-14s6.2803-14,14-14s14,6.2803,14,14  S38.1051,31.9998,30.3854,31.9998z M30.3854,11.9998c-3.3086,0-6,2.6914-6,6s2.6914,6,6,6s6-2.6914,6-6  S33.694,11.9998,30.3854,11.9998z"/>
<path fill="#FFC504" d="M195.6989,30.6272c-1.0605,0-2.0781-0.4214-2.8281-1.1719l-11.3135-11.314  c-1.5625-1.562-1.5625-4.0942,0-5.6567l11.3135-11.3135c1.5605-1.5615,4.0957-1.5615,5.6562,0l11.3135,11.3135  c1.5625,1.5625,1.5625,4.0947,0,5.6567l-11.3135,11.314C197.777,30.2058,196.7594,30.6272,195.6989,30.6272z M190.0426,15.3132  l5.6562,5.6572l5.6562-5.6572l-5.6562-5.6567L190.0426,15.3132z"/>
</svg>